<?xml version="1.0" encoding="UTF-8"?>
<!-- Generator: Adobe Illustrator 19.1.0, SVG Export Plug-In . SVG Version: 6.00 Build 0)  -->
<svg xmlns="http://www.w3.org/2000/svg" xmlns:xlink="http://www.w3.org/1999/xlink" xmlns:dc="http://purl.org/dc/elements/1.1/" xmlns:cc="http://creativecommons.org/ns#" xmlns:rdf="http://www.w3.org/1999/02/22-rdf-syntax-ns#" version="1.1" id="DESIGNS" x="0px" y="0px" width="32px" height="32px" viewBox="0 0 32 32" style="enable-background:new 0 0 32 32;" xml:space="preserve">
<title property="dc:title">to amaze</title><desc property="dc:description">An icon for "amaze" from the Feather series on to [icon]. Downloaded from http://www.toicon.com/icons/feather_amaze by 190.19.150.91 on 2020-03-28. Licensed CC-BY, see http://toicon.com/license/ for details.</desc>
<path class="feather_een" d="M30.586,27.586L14.414,11.414c-0.391-0.391-0.902-0.586-1.414-0.586s-1.024,0.195-1.414,0.586  l-0.172,0.172c-0.781,0.781-0.781,2.047,0,2.828l16.172,16.172c0.391,0.391,0.902,0.586,1.414,0.586s1.024-0.195,1.414-0.586  l0.172-0.172C31.367,29.633,31.367,28.367,30.586,27.586z M12.121,13.707c-0.39-0.39-0.39-1.024,0-1.414l0.172-0.172  c0.189-0.189,0.44-0.293,0.707-0.293s0.518,0.104,0.707,0.293l3.232,3.232l-1.586,1.586L12.121,13.707z M29.879,29.707l-0.172,0.172  c-0.189,0.189-0.44,0.293-0.707,0.293s-0.518-0.104-0.707-0.293L16.061,17.646l1.586-1.586l12.232,12.232  C30.269,28.683,30.269,29.317,29.879,29.707z M11.39,6.195L9,5L7.805,2.61C7.639,2.278,7.32,2.112,7,2.112S6.361,2.278,6.195,2.61  L5,5L2.61,6.195c-0.663,0.332-0.663,1.278,0,1.61L5,9l1.195,2.39C6.361,11.722,6.68,11.888,7,11.888s0.639-0.166,0.805-0.497L9,9  l2.39-1.195C12.053,7.473,12.053,6.527,11.39,6.195z M8.255,8.255L7,10.764L5.745,8.255L3.236,7l2.509-1.255L7,3.236l1.255,2.509  L10.764,7L8.255,8.255z M8.639,17.154l-1.195-0.598l-0.598-1.195c-0.083-0.166-0.243-0.249-0.402-0.249s-0.32,0.083-0.403,0.249  l-0.597,1.195l-1.195,0.598c-0.332,0.166-0.332,0.639,0,0.805l1.195,0.597l0.597,1.195C6.124,19.917,6.284,20,6.444,20  s0.32-0.083,0.402-0.249l0.598-1.195l1.195-0.597C8.97,17.793,8.97,17.32,8.639,17.154z M6.698,17.811L6.444,18.32l-0.255-0.509  L5.68,17.556l0.509-0.255l0.255-0.509l0.255,0.509l0.509,0.255L6.698,17.811z M15.249,6.959l1.195,0.597l0.597,1.195  C17.124,8.917,17.284,9,17.444,9s0.32-0.083,0.402-0.249l0.598-1.195l1.195-0.597c0.332-0.166,0.332-0.639,0-0.805l-1.195-0.598  l-0.598-1.195c-0.083-0.166-0.243-0.249-0.402-0.249s-0.32,0.083-0.403,0.249l-0.597,1.195l-1.195,0.598  C14.917,6.32,14.917,6.793,15.249,6.959z M17.189,6.302l0.255-0.509l0.255,0.509l0.509,0.255l-0.509,0.255L17.444,7.32l-0.255-0.509  L16.68,6.556L17.189,6.302z M11.5,18c-0.827,0-1.5,0.673-1.5,1.5s0.673,1.5,1.5,1.5s1.5-0.673,1.5-1.5S12.327,18,11.5,18z M11.5,20  c-0.276,0-0.5-0.224-0.5-0.5c0-0.276,0.224-0.5,0.5-0.5s0.5,0.224,0.5,0.5C12,19.776,11.776,20,11.5,20z M18,11.5  c0,0.827,0.673,1.5,1.5,1.5s1.5-0.673,1.5-1.5S20.327,10,19.5,10S18,10.673,18,11.5z M20,11.5c0,0.276-0.224,0.5-0.5,0.5  S19,11.776,19,11.5c0-0.276,0.224-0.5,0.5-0.5S20,11.224,20,11.5z M13,4c0.827,0,1.5-0.673,1.5-1.5S13.827,1,13,1  s-1.5,0.673-1.5,1.5S12.173,4,13,4z M13,2c0.276,0,0.5,0.224,0.5,0.5C13.5,2.776,13.276,3,13,3s-0.5-0.224-0.5-0.5  C12.5,2.224,12.724,2,13,2z M4.5,12.5C4.5,11.673,3.827,11,3,11s-1.5,0.673-1.5,1.5S2.173,14,3,14S4.5,13.327,4.5,12.5z M3,13  c-0.276,0-0.5-0.224-0.5-0.5C2.5,12.224,2.724,12,3,12s0.5,0.224,0.5,0.5C3.5,12.776,3.276,13,3,13z" style="fill: #0B1719;"/>
<metadata><work rdf:about=""><format>image/svg+xml</format><type rdf:resource="http://purl.org/dc/dcmitype/StillImage"/><license rdf:resource="http://creativecommons.org/licenses/by/4.0/"/><attributionname>Shannon E Thomas</attributionname><attributionurl>http://www.toicon.com/icons/feather_amaze</attributionurl></work></metadata></svg>
