<?xml version="1.0" encoding="UTF-8"?>
<!-- Generator: Adobe Illustrator 19.2.0, SVG Export Plug-In . SVG Version: 6.00 Build 0)  -->
<svg xmlns="http://www.w3.org/2000/svg" xmlns:xlink="http://www.w3.org/1999/xlink" xmlns:dc="http://purl.org/dc/elements/1.1/" xmlns:cc="http://creativecommons.org/ns#" xmlns:rdf="http://www.w3.org/1999/02/22-rdf-syntax-ns#" version="1.1" id="DESIGNS" x="0px" y="0px" width="32px" height="32px" viewBox="0 0 32 32" style="enable-background:new 0 0 32 32;" xml:space="preserve">
<title property="dc:title">to brush</title><desc property="dc:description">An icon for "brush" from the Feather series on to [icon]. Downloaded from http://www.toicon.com/icons/feather_brush by 190.19.150.91 on 2020-03-28. Licensed CC-BY, see http://toicon.com/license/ for details.</desc>
<path class="feather_een" d="M30,23H16v-6.5c0-0.276-0.224-0.5-0.5-0.5S15,16.224,15,16.5V23h-1v-6.5  c0-0.083-0.025-0.159-0.062-0.228C14.583,15.722,15,14.914,15,14c0-1.657-1.343-3-3-3H8c-0.552,0-1-0.448-1-1  c0-0.384,0.217-0.718,0.535-0.886C7.838,8.955,8,8.615,8,8.273V8c0-0.552-0.448-1-1-1H6c-2.209,0-4,1.791-4,4v3  c0,0.914,0.417,1.722,1.062,2.272C3.025,16.341,3,16.417,3,16.5V23H2v-6.5C2,16.224,1.776,16,1.5,16S1,16.224,1,16.5v6.777  C0.405,23.624,0,24.262,0,25c0,1.105,0.895,2,2,2h28c1.105,0,2-0.895,2-2C32,23.895,31.105,23,30,23z M13,23h-1v-6  c0.353,0,0.686-0.072,1-0.184V23z M10,23v-6h1v6H10z M8,23v-6h1v6H8z M6,23v-6h1v6H6z M3,11c0-1.654,1.346-3,3-3h1L6.997,8.269  C6.38,8.627,6,9.283,6,10c0,1.103,0.897,2,2,2h4c1.103,0,2,0.897,2,2c0,1.103-0.897,2-2,2H5c-1.103,0-2-0.897-2-2V11z M4,16.816  C4.314,16.928,4.647,17,5,17v6H4V16.816z M30,26H2c-0.551,0-1-0.449-1-1s0.449-1,1-1h28c0.551,0,1,0.449,1,1S30.551,26,30,26z" style="fill: #0B1719;"/>
<metadata><work rdf:about=""><format>image/svg+xml</format><type rdf:resource="http://purl.org/dc/dcmitype/StillImage"/><license rdf:resource="http://creativecommons.org/licenses/by/4.0/"/><attributionname>Shannon E Thomas</attributionname><attributionurl>http://www.toicon.com/icons/feather_brush</attributionurl></work></metadata></svg>
